<?xml version="1.0" encoding="UTF-8"?> <svg xmlns="http://www.w3.org/2000/svg" width="334" height="236" viewBox="0 0 334 236" fill="none"><path d="M116.706 180.015L117.157 179.835H139.309L123.82 189.016H118.417C118.417 189.016 118.868 187.576 118.507 186.586C118.237 185.596 116.706 180.015 116.706 180.015Z" fill="white"></path><path d="M123.82 189.196H118.417C118.417 188.746 123.73 188.746 123.73 188.746L138.499 180.015H117.247L116.796 180.195C116.616 179.745 117.067 179.565 117.067 179.565C117.157 179.565 139.309 179.565 139.309 179.565C139.399 180.015 123.91 189.106 123.91 189.106C123.91 189.196 123.82 189.196 123.82 189.196Z" fill="black"></path><path d="M128.593 182.355H117.337C117.337 181.905 128.593 181.905 128.593 181.905C128.863 182.265 128.773 182.355 128.593 182.355Z" fill="black"></path><path d="M123.82 185.326H118.057C118.057 184.876 123.82 184.876 123.82 184.876C124.001 185.236 123.91 185.326 123.82 185.326Z" fill="black"></path><path d="M151.916 25.3823C151.736 25.3823 151.556 25.2023 151.016 24.9323C151.826 24.6622 152.097 24.8422 152.097 24.8422C152.097 25.3823 152.006 25.3823 151.916 25.3823ZM148.224 23.4921C147.144 23.0421 146.153 22.5921 145.073 22.142C146.333 22.052 147.324 22.502 148.314 22.9521C148.404 23.4921 148.314 23.4921 148.224 23.4921ZM88.0701 23.2221C88.8806 22.142 89.8711 21.602 90.7717 21.0619C90.0512 22.052 89.1507 22.5921 88.1602 23.2221C88.2502 23.2221 88.1602 23.2221 88.0701 23.2221ZM142.101 20.9719C141.02 20.5219 139.94 20.1618 138.949 19.8918C140.21 19.7118 141.2 20.0718 142.281 20.4319C142.371 20.8819 142.281 20.9719 142.101 20.9719ZM93.9234 20.2519C94.824 19.2618 95.8145 18.8117 96.8951 18.4517C96.0847 19.3518 95.0941 19.8018 94.0135 20.2519C94.0135 20.1618 94.0135 20.2519 93.9234 20.2519ZM135.887 18.8117C134.717 18.4517 133.726 18.1817 132.645 17.9117C133.816 17.6416 134.897 17.9117 135.977 18.1817C136.157 18.7217 135.977 18.8117 135.887 18.8117ZM100.137 17.9117C101.128 17.0116 102.208 16.7416 103.289 16.5615C102.298 17.3716 101.218 17.6416 100.137 17.9117ZM129.494 17.2816C128.323 17.0116 127.242 16.8316 126.162 16.6515C127.332 16.2915 128.413 16.4715 129.494 16.6515C129.764 17.1016 129.584 17.2816 129.494 17.2816ZM106.531 16.4715C107.521 15.7515 108.692 15.5715 109.772 15.4814C108.782 16.2015 107.701 16.2915 106.531 16.4715C106.531 16.4715 106.621 16.4715 106.531 16.4715ZM123.01 16.2015C121.929 16.1115 120.759 16.0215 119.678 15.9315C120.759 15.3914 121.929 15.5715 123.01 15.6615C123.28 16.1115 123.1 16.2015 123.01 16.2015ZM113.104 15.8415C114.185 15.2114 115.266 15.2114 116.436 15.2114C115.266 15.7515 114.185 15.7515 113.104 15.8415Z" fill="black"></path><path d="M164.614 130.421C164.614 130.421 155.248 128.981 146.423 139.872C146.423 139.872 141.02 145.272 138.769 154.723C136.518 164.264 136.248 170.474 128.503 175.335L128.233 175.785L132.105 186.676H203.246C203.246 186.676 207.748 179.745 205.497 166.604C203.246 153.463 199.103 146.622 197.122 143.742C195.141 140.862 191.359 133.751 182.804 131.771C174.429 129.881 164.614 130.421 164.614 130.421Z" fill="#1EBCD8"></path><path d="M150.205 147.703C150.205 147.703 143.812 170.835 146.063 186.496L154.618 186.766C154.618 186.766 150.566 186.406 149.125 174.975C147.504 163.544 148.494 150.583 150.205 147.703Z" fill="black"></path><path d="M217.834 15.5715V74.0765H159.301C159.301 106.389 185.506 132.581 217.834 132.581C250.162 132.581 276.367 106.389 276.367 74.0765C276.367 41.8538 250.162 15.5715 217.834 15.5715Z" fill="#1EBCD8"></path><path d="M143.452 61.4753H201.355V3.60041C201.355 3.60041 177.581 1.98027 159.391 21.6919C141.11 41.3136 143.452 61.4753 143.452 61.4753Z" fill="black"></path><path d="M169.837 74.1664C169.837 90.0077 157.049 102.789 141.2 102.789C125.351 102.789 112.564 90.0077 112.564 74.1664C112.564 58.325 125.351 45.5439 141.2 45.5439C157.049 45.5439 169.837 58.325 169.837 74.1664Z" fill="black"></path><path d="M75.553 113.86C75.553 113.86 62.7657 111.97 57.0925 120.52C51.4193 129.071 50.1585 130.601 47.0067 137.982C43.855 145.362 41.7838 153.103 42.0539 158.864C42.4141 164.624 43.6749 170.835 50.4287 173.895L50.0685 186.766L98.3359 186.496L117.787 157.513C117.787 157.513 117.427 142.842 116.256 135.012C115.085 127.181 113.735 124.121 113.735 124.121L99.6867 123.941C99.6867 123.941 93.2931 113.41 82.8471 112.6L75.553 113.86Z" fill="#1EBCD8"></path><path d="M260.518 112.42C260.518 112.42 253.584 111.79 248.541 117.01C243.499 122.231 241.247 128.531 241.247 128.531L240.707 111.16C240.707 111.16 238.005 108.549 231.612 108.999C225.218 109.359 222.787 109.809 221.976 110.8C221.976 110.8 220.716 124.391 221.076 135.462C221.436 146.443 222.156 154.453 232.332 154.273C242.598 154.093 248.361 146.173 248.361 146.173L247.101 186.586H294.648C294.648 186.586 293.657 174.435 294.197 172.455C294.197 172.455 307.525 169.845 308.786 163.364C310.046 156.973 309.416 153.103 306.714 145.002C306.714 145.002 302.932 134.922 299.6 128.801C296.359 122.591 294.467 117.82 287.173 114.31C279.879 110.8 273.846 112.87 273.846 112.87L260.518 112.42Z" fill="black"></path><path d="M162.452 74.1665C162.452 87.2176 151.826 97.8385 138.769 97.8385C125.712 97.8385 115.085 87.2176 115.085 74.1665C115.085 61.1154 125.712 50.4945 138.769 50.4945C151.826 50.4045 162.452 61.0254 162.452 74.1665Z" fill="white"></path><path d="M170.287 186.856C170.287 186.856 173.169 184.246 173.619 181.185C174.069 178.125 172.448 174.975 171.277 173.985C170.017 172.995 168.036 171.105 164.073 171.555L158.31 176.865L152.727 177.585L158.58 171.735C158.58 171.735 153.267 171.465 150.386 176.955L150.025 177.495C150.025 177.495 148.134 178.215 147.954 179.475C147.774 180.735 148.585 181.185 148.585 181.185C148.585 181.185 148.585 184.066 152.457 184.786C152.457 184.786 154.708 187.936 161.462 187.936C168.216 187.936 170.287 186.856 170.287 186.856Z" fill="white"></path><path d="M173.709 130.691V120.52C173.709 120.52 177.041 120.61 177.041 117.64C177.131 114.67 174.609 114.58 172.988 114.76C172.988 114.76 171.458 114.22 171.097 113.32C170.827 112.42 170.557 110.619 170.737 109.629C170.737 109.629 167.315 111.34 163.983 111.16C160.741 110.889 159.661 109.899 159.661 109.899L159.751 121.33C159.751 121.33 159.571 127.001 164.343 126.731L164.524 131.771C164.524 131.771 162.542 137.802 164.974 137.802C167.585 137.892 171.277 135.462 173.709 130.691Z" fill="white"></path><path d="M114.185 122.861C114.185 122.861 116.796 126.191 116.166 129.341C115.536 132.491 112.924 136.722 109.592 137.622C106.26 138.432 104.189 137.982 103.109 136.812C102.028 135.732 100.497 134.652 100.137 133.662C99.8668 132.671 99.4166 130.511 102.028 130.421C102.028 130.421 101.578 128.711 102.748 127.631C103.919 126.551 104.82 126.911 104.82 126.911C104.82 126.911 104.549 124.931 106.441 124.301C108.332 123.671 109.142 124.841 110.223 125.561C111.303 126.371 111.483 126.461 111.483 126.461L114.185 122.861Z" fill="white"></path><path d="M91.492 136.182C91.492 136.182 89.9612 138.162 89.7811 139.062C89.601 139.872 89.601 142.752 92.1224 144.192C94.5538 145.633 95.6344 146.353 96.9852 145.993C98.3359 145.633 98.8763 144.912 98.8763 144.912C98.8763 144.912 99.3265 144.732 99.5967 145.723C99.8668 146.893 100.047 148.783 98.516 149.503C98.516 149.503 98.2459 152.563 96.1747 152.743C96.1747 152.743 94.4637 155.173 92.3926 154.723C90.3214 154.273 89.8711 153.283 88.4303 153.193C86.9895 153.013 85.9089 153.373 84.8282 154.093C84.8282 154.093 82.8471 150.583 81.4964 149.143C80.1456 147.703 79.2451 146.083 79.2451 146.083C79.2451 146.083 82.0367 144.192 82.7571 142.302C83.4775 140.502 85.3686 134.922 91.492 136.182Z" fill="white"></path><path d="M75.1027 114.04L81.5864 118.99L82.8471 112.69L83.1173 107.829C83.1173 107.829 85.7288 108.009 86.7193 106.209C87.7099 104.319 87.89 101.889 87.89 99.9985C87.89 98.1084 87.6198 92.4379 87.6198 92.4379C87.6198 92.4379 84.6482 88.0275 82.7571 87.3975C82.7571 87.3975 81.2262 91.6278 79.6953 93.248C78.0744 94.7781 75.553 96.4882 75.553 96.4882C75.553 96.4882 71.5907 95.4981 71.2305 99.0984C70.8703 102.789 75.2828 101.889 75.2828 101.889C75.2828 101.889 78.6147 103.869 79.3351 107.199C79.8754 110.439 77.0839 114.13 75.1027 114.04Z" fill="white"></path><path d="M274.116 108.819L273.936 100.809C273.936 100.809 277.268 101.349 278.078 99.3686C278.889 97.3884 278.258 95.4082 277.268 94.8682C276.277 94.3282 273.125 93.6081 271.955 96.2183L272.405 100.989C272.405 100.989 273.215 106.299 269.073 106.929C264.931 107.559 262.95 107.379 262.95 107.379V108.819L265.381 118.27L274.116 108.819Z" fill="white"></path><path d="M268.263 87.3975C268.263 87.3975 264.39 90.6377 258.897 89.8277L259.077 91.2678C259.077 91.2678 258.087 92.6179 258.087 95.3181C258.087 98.0184 259.077 99.1885 259.077 99.1885C259.077 99.1885 260.248 100.089 261.509 99.1885C261.509 99.1885 262.499 100.179 263.85 99.8185C265.201 99.4585 265.471 98.9184 266.101 98.7384C266.101 98.7384 266.642 99.7285 267.812 99.4585C268.983 99.1885 269.253 98.2884 269.253 98.2884C269.253 98.2884 270.514 98.8284 271.054 97.8383C271.685 96.7583 271.144 93.878 271.144 93.878C271.144 93.878 268.353 91.1778 268.263 87.3975Z" fill="white"></path><path d="M237.375 112.69L237.195 107.559C237.195 107.559 238.906 103.509 239.266 101.079C239.626 98.7385 239.086 97.6584 238.005 96.8483C236.925 96.0382 236.745 96.0382 236.745 96.0382C236.745 96.0382 236.925 92.0779 236.294 89.8277C235.664 87.4875 235.574 86.3174 234.133 86.4074C232.692 86.4974 231.792 88.2976 231.882 89.7377C231.972 91.1778 232.332 95.1381 232.332 95.1381C232.332 95.1381 231.972 93.608 229.991 93.698C228.01 93.788 227.649 96.4883 227.649 96.4883C227.649 96.4883 226.659 94.2381 224.768 94.3281C222.967 94.4181 222.697 96.9383 222.787 98.1084C222.877 99.2785 223.057 102.159 223.687 102.879C223.687 102.879 224.408 107.109 224.678 108.729C224.858 110.349 225.128 112.87 225.128 112.87C225.128 112.87 232.692 114.76 237.375 112.69Z" fill="white"></path><path d="M265.831 162.104C265.831 162.104 262.86 159.764 259.708 159.043C256.466 158.323 255.565 158.323 254.575 159.133C253.584 160.034 251.783 161.384 250.793 162.194C249.802 162.914 247.281 164.444 249.532 166.424C251.783 168.404 255.926 165.704 257.006 164.084L267.002 166.154C267.002 166.154 266.282 162.644 265.831 162.104Z" fill="white"></path><path d="M87.7999 92.0779C87.7999 92.0779 88.2502 87.1275 86.7193 85.8674C85.1885 84.5173 83.0272 83.2572 78.2545 83.6172C78.2545 83.6172 65.9175 83.0772 65.6473 91.0878C65.6473 91.0878 67.3583 99.9086 67.7185 102.789C68.0787 105.669 69.4295 108.009 63.8463 109.719C58.2631 111.43 56.1019 117.64 57.1825 120.07C57.1825 120.07 60.5144 116.74 63.1259 115.75C65.7374 114.76 68.619 114.22 73.5719 114.13C78.6147 114.04 79.155 110.98 79.2451 109.359C79.3351 107.739 79.5152 105.669 77.8043 104.139C76.0933 102.609 75.0127 101.979 75.0127 101.979C75.0127 101.979 71.0504 102.429 71.3206 98.9185C71.5007 95.4082 75.643 96.4883 75.643 96.4883C75.643 96.4883 79.155 94.5981 80.3257 92.618C81.4964 90.6378 82.9372 87.3975 82.9372 87.3975C82.9372 87.3975 86.2691 89.8277 87.7999 92.0779Z" fill="black"></path><path d="M83.1173 107.919L82.9372 112.6L86.089 113.14C86.089 113.14 87.3497 111.34 86.8094 109.63C86.2691 107.829 85.6387 107.289 85.6387 107.289C85.6387 107.289 83.9277 108.009 83.1173 107.919Z" fill="black"></path><path d="M277.538 94.9582C277.538 94.9582 279.339 92.258 279.159 88.9277C278.979 85.5974 277.448 84.6973 276.277 84.3373C275.106 84.0673 270.874 83.8873 270.874 83.8873C270.874 83.8873 269.343 80.827 267.182 79.7469C264.931 78.6668 262.049 78.1268 259.798 79.927C257.547 81.7271 256.286 84.6973 258.087 87.4876C258.087 87.8476 256.556 88.0276 256.466 90.2778C256.376 92.528 258.087 93.5181 258.087 93.5181L259.077 91.5379L259.258 90.0078C259.258 90.0078 264.751 90.6378 268.083 87.3976C268.083 87.3976 268.983 91.988 271.144 93.6981L271.054 98.0185C271.054 98.0185 270.154 98.4685 269.433 98.4685C269.433 98.4685 268.623 99.8186 267.632 99.6386C266.732 99.4586 266.011 98.9185 266.011 98.9185C266.011 98.9185 264.48 99.8186 264.03 99.9086C263.58 99.9986 261.959 99.6386 261.689 99.2786C261.419 99.2786 260.338 100.089 259.077 99.0986C258.897 99.1886 258.987 102.789 258.987 103.599C258.987 104.409 259.978 107.379 263.49 107.289C267.002 107.199 269.793 106.929 270.964 105.939C272.135 104.949 272.405 102.429 272.315 100.989C272.225 99.5486 272.225 95.8583 272.225 95.8583C272.225 95.8583 273.936 92.978 277.538 94.9582Z" fill="#1EBCD8"></path><path d="M262.95 108.909L260.518 112.42L260.698 125.021C260.698 125.021 259.708 148.063 260.788 155.803L267.092 135.012L270.154 126.101L270.784 127.181L277.538 112.42L274.116 108.639L262.95 108.909Z" fill="white"></path><path d="M265.471 118.18L262.409 122.501L262.769 126.731L260.608 130.961C260.608 130.961 260.608 131.231 260.518 131.681C260.338 138.972 260.158 150.313 260.788 155.443C260.878 155.533 267.092 134.922 267.092 134.922L267.632 133.481C267.632 132.941 267.632 132.581 267.632 132.581L266.011 126.731L268.533 123.401L265.471 118.18Z" fill="#1EBCD8"></path><path d="M268.623 100.629C268.623 100.629 266.462 101.439 266.732 103.779C266.732 103.779 265.381 104.229 264.661 103.869C264.03 103.509 263.22 102.699 263.58 102.069C263.94 101.439 264.751 101.619 265.381 101.619C266.011 101.619 266.281 101.889 266.642 101.169C267.002 100.539 267.092 100.089 267.812 99.9086C268.443 99.8186 268.623 100.629 268.623 100.629Z" fill="black"></path><path d="M268.623 100.629C268.623 100.629 266.462 101.529 266.912 103.689C266.912 103.689 267.812 103.959 268.443 102.789C268.983 101.529 268.623 100.629 268.623 100.629Z" fill="white"></path><path d="M182.174 131.411C182.174 131.411 186.406 131.411 186.766 126.731C187.217 121.96 182.804 119.89 178.932 119.8C178.932 119.8 180.283 113.23 180.373 112.06C180.463 110.889 181.273 106.209 176.05 105.759C175.6 105.489 171.638 101.619 166.415 101.979C161.192 102.339 159.211 105.039 158.4 106.749C157.59 108.459 158.13 111.97 159.751 113.41L159.931 109.629C159.931 109.629 161.642 111.159 164.704 111.069C167.765 110.979 170.827 109.269 170.827 109.269C170.827 109.269 170.017 113.5 172.808 114.67C172.808 114.67 173.889 114.4 174.789 114.49C175.69 114.67 177.221 116.02 177.131 117.82C177.041 119.62 175.15 120.7 173.889 120.52L173.709 130.421C173.709 130.421 178.572 130.421 182.174 131.411Z" fill="black"></path><path d="M160.021 122.861C160.021 122.861 156.599 123.221 155.789 126.731C154.978 130.241 158.22 131.321 158.22 131.321L164.614 130.511L164.434 126.821C164.524 126.731 160.291 127.271 160.021 122.861Z" fill="black"></path><path d="M276.908 168.134L273.215 170.744L276.277 171.105L248.631 190.456L214.952 183.616L218.464 180.915L215.763 180.375L243.318 161.294L276.908 168.134Z" fill="white"></path><path d="M152.457 177.495L161.912 168.314L164.073 170.745L158.04 177.225L152.457 177.495Z" fill="black"></path><path d="M148.585 181.186L146.783 185.866L150.656 184.516L148.585 181.186Z" fill="white"></path><path d="M161.912 168.314L162.993 167.144L165.514 169.574L164.343 170.835L161.912 168.314Z" fill="white"></path><path d="M126.252 205.757C129.584 205.217 132.375 203.957 133.906 201.797C135.077 200.177 135.437 198.197 134.717 196.217L123.55 162.554C122.65 159.764 119.948 157.783 116.977 157.783H69.9698C69.4295 157.783 68.8892 157.873 68.4389 157.963C68.8892 157.243 69.4295 157.243 69.9698 157.243H117.067C120.308 157.243 123.19 159.314 124.181 162.374L135.347 196.037C136.067 198.197 135.707 200.357 134.447 202.157C132.736 204.407 129.764 205.757 126.252 205.757Z" fill="black"></path><path d="M64.2065 160.214C64.0264 159.674 68.1688 157.333 68.1688 157.333C68.4389 157.874 64.2966 160.124 64.2966 160.124C64.2966 160.214 64.2966 160.214 64.2065 160.214Z" fill="black"></path><path d="M65.017 159.494L68.7991 157.423H117.967C117.967 157.423 122.38 157.153 124.361 163.274L135.437 197.297C135.437 197.297 136.067 203.957 128.323 205.217C128.323 205.217 132.645 202.607 132.285 197.927L120.669 164.264C120.669 164.264 119.408 160.034 114.635 159.584L65.017 159.494Z" fill="white"></path><path d="M168.756 126.281C168.756 126.281 166.505 129.611 164.614 129.521L164.434 126.821L168.756 126.281Z" fill="#CDCCCC"></path><path d="M79.3351 108.639C79.3351 108.639 81.9466 109.989 82.9372 110.079L83.1173 107.649L79.5152 107.109L79.3351 108.639Z" fill="#CDCCCC"></path><path d="M112.024 112.33L123.01 96.2183L126.882 98.9185L115.716 114.85C115.716 114.94 113.014 114.85 112.024 112.33Z" fill="#1EBCD8"></path><path d="M98.516 145.632L104.189 137.532L100.497 134.201C100.497 134.201 98.6061 131.231 102.118 130.511C102.118 130.511 101.308 127.451 104.91 127.001C104.91 127.001 104.82 125.561 106.08 124.571C107.341 123.581 108.962 124.571 108.962 124.571L111.483 126.641L117.877 117.19C117.877 117.19 114.455 116.29 111.934 114.22C109.412 112.15 109.142 110.709 109.142 110.709L90.3214 137.982C90.3214 137.982 88.0701 141.762 92.1224 144.282C96.2648 146.713 98.516 145.632 98.516 145.632Z" fill="black"></path><path d="M50.1585 173.895L50.0685 177.225C59.6139 178.305 62.4055 176.235 62.4055 176.235L61.8652 174.615C61.8652 174.615 59.3438 175.245 55.8318 175.335C52.4098 175.515 50.1585 173.895 50.1585 173.895Z" fill="black"></path><path d="M131.835 196.487L120.669 164.264C119.678 161.474 116.977 159.583 113.825 159.583H66.728C61.8652 159.583 58.3532 164.174 59.8841 168.674L61.595 173.535L71.0504 200.987C72.041 203.777 74.7425 205.667 77.8943 205.667H124.991C129.944 205.487 133.366 200.897 131.835 196.487Z" fill="black"></path><path d="M273.215 170.745L276.277 171.105L248.631 190.456L214.952 183.616L218.464 180.915L249.352 187.216L273.215 170.745Z" fill="#1EBCD8"></path><path d="M250.433 167.144C250.433 167.144 253.314 168.494 256.016 166.694C258.717 164.894 258.807 164.444 258.807 164.444L257.276 163.814C257.366 163.904 254.305 167.684 250.433 167.144Z" fill="#CDCCCC"></path><path d="M272.135 104.049C272.135 104.049 272.765 110.259 263.22 109.359L262.95 107.559L268.083 107.109C268.083 107.109 271.955 107.289 272.135 104.049Z" fill="#CDCCCC"></path><path d="M95.7245 182.086C97.1653 184.606 96.9852 187.306 95.3642 188.296C93.7433 189.196 91.2219 188.026 89.7811 185.506C88.3402 182.986 88.5203 180.285 90.1413 179.295C91.7622 178.305 94.2836 179.565 95.7245 182.086Z" fill="#1EBCD8"></path><path d="M78.2545 83.6171C78.2545 83.6171 77.264 83.6171 75.9132 83.7071C77.7142 84.4271 79.6953 85.9573 78.8849 88.6575C77.5341 93.2479 74.4724 96.1281 74.4724 96.1281L75.1027 96.3981C75.553 96.4882 79.065 94.598 80.2356 92.6178C81.4063 90.6377 82.8471 87.3974 82.8471 87.3974C82.8471 87.3974 86.3591 90.0076 87.89 92.1678C87.89 92.1678 88.3403 87.2174 86.8094 85.9573C85.1885 84.4271 83.0272 83.167 78.2545 83.6171Z" fill="white"></path><path d="M79.2451 109.269C79.3351 107.649 79.5152 105.579 77.8043 104.049C76.0933 102.519 75.0127 101.889 75.0127 101.889C75.0127 101.889 74.3823 101.979 73.6619 101.799C73.5718 101.889 77.5341 104.319 77.264 107.829C76.9037 112.69 73.3017 114.22 71.5007 114.22C71.9509 114.22 72.7614 114.13 73.5718 114.13C78.6147 113.95 79.155 110.89 79.2451 109.269Z" fill="white"></path><path d="M85.6387 107.199C85.6387 107.199 85.0984 107.469 84.378 107.649C85.0084 108.549 85.9989 110.53 84.6481 112.78L86.089 113.05C86.089 113.05 87.3497 111.25 86.8094 109.539C86.2691 107.829 85.6387 107.199 85.6387 107.199Z" fill="white"></path><path d="M161.912 105.849C162.542 103.869 164.974 102.699 167.045 101.979C166.865 101.979 166.595 101.979 166.415 101.979C161.192 102.339 159.211 105.039 158.4 106.749C157.59 108.459 158.13 111.97 159.751 113.41L159.931 109.629C159.931 109.629 161.642 111.16 164.704 111.07C167.765 110.98 170.827 109.269 170.827 109.269C168.846 110.349 160.741 109.539 161.912 105.849Z" fill="white"></path><path d="M158.49 127.181C158.76 125.471 159.571 124.571 160.291 124.211C160.201 123.851 160.111 123.401 160.021 122.861C160.021 122.861 156.599 123.221 155.789 126.731C154.978 130.241 158.22 131.321 158.22 131.321L160.201 131.051C159.211 130.151 158.22 128.891 158.49 127.181Z" fill="white"></path><path d="M266.191 119.44L263.85 122.86L264.12 127.001L260.338 139.422L260.518 131.141L262.499 126.731L262.229 122.68L265.291 118.36L266.191 119.44Z" fill="#1EBCD8"></path><path d="M266.732 99.4584C267.992 98.6484 269.703 92.7979 266.462 90.9077C266.462 90.9077 269.613 89.9176 269.793 95.4081C270.064 100.088 266.732 99.4584 266.732 99.4584Z" fill="#CDCCCC"></path><path d="M259.708 99.4585C260.968 98.6485 262.86 92.978 259.618 91.0878C259.618 91.0878 263.22 90.0077 262.769 95.4982C262.409 99.9986 259.708 99.4585 259.708 99.4585Z" fill="#CDCCCC"></path><path d="M261.149 103.419C260.968 101.709 260.968 99.5484 260.968 99.5484C260.608 99.6384 260.158 99.7284 259.618 99.5484C258.807 99.3684 258.897 102.879 258.987 103.689C258.987 104.499 259.978 107.469 263.49 107.379C264.39 107.379 265.291 107.289 266.101 107.289C263.85 106.749 261.509 106.479 261.149 103.419Z" fill="white"></path><path d="M258.987 91.5379L259.167 90.0078C259.167 90.0078 263.94 90.5478 267.362 88.0276C266.462 88.2076 259.978 88.1176 260.248 83.2572C260.428 80.107 262.499 79.1169 264.12 78.7569C262.589 78.5768 261.059 78.8469 259.798 79.8369C257.547 81.6371 256.286 84.6073 258.087 87.3976C258.087 87.7576 256.556 87.9376 256.466 90.1878C256.376 92.438 258.087 93.4281 258.087 93.4281L258.987 91.5379Z" fill="white"></path><path d="M57.2726 120.61C56.3721 118.99 56.4621 117.19 57.3626 115.39C58.7134 112.51 62.0453 109.719 64.9269 108.999C66.0976 108.729 66.9081 108.099 67.3583 107.379C68.0787 106.119 67.7185 104.769 67.7185 104.769C66.5479 96.0383 65.3772 91.3579 65.3772 91.3579C65.4672 88.9277 66.6379 87.0375 68.619 85.5974C73.3017 82.4471 82.1267 83.0772 84.6482 84.0672C84.7382 84.0672 88.8806 84.7873 88.0701 92.4379C88.3403 85.3273 84.6482 84.6073 84.5581 84.6073C82.4869 83.8872 73.752 82.8971 68.9792 86.1374C67.0882 87.3975 66.0976 89.1077 66.0076 91.2679C66.0976 91.7179 67.2683 96.3983 68.3489 104.679C68.3489 104.679 68.7991 106.299 67.9887 107.739C67.4484 108.639 66.5479 109.359 65.1971 109.629C62.8558 110.259 59.5239 112.69 57.993 115.75C57.1825 117.37 57.0925 118.99 57.6328 120.25C57.3626 120.61 57.3626 120.61 57.2726 120.61Z" fill="black"></path><path d="M84.5581 157.783C84.378 157.243 85.0984 156.703 85.5487 156.253C85.1885 155.533 83.5675 152.473 81.4964 149.683C78.7048 145.992 76.6336 144.552 76.1833 144.192C74.8326 145.002 64.2065 151.663 58.1731 157.513C64.2065 150.763 75.9132 143.652 76.0933 143.562C76.4535 143.562 78.7948 144.822 82.0367 149.233C84.468 152.563 86.179 156.073 86.2691 156.073C85.7288 156.883 84.9183 157.603 84.9183 157.603C84.6482 157.693 84.6482 157.783 84.5581 157.783Z" fill="black"></path><path d="M56.8223 175.605C54.2108 175.605 51.5994 174.885 49.258 173.445C45.746 171.285 43.4047 168.044 42.3241 163.724C39.4424 151.753 47.367 134.652 52.4999 126.461C52.77 126.101 52.9501 125.741 53.2203 125.291C54.481 123.221 55.7417 121.15 57.4527 119.44C63.0359 113.86 67.3583 113.5 73.3017 113.68C67.3583 114.04 63.306 114.4 57.9029 119.8C56.282 121.42 54.9313 123.581 53.7606 125.561C53.4904 125.921 53.3103 126.371 53.0402 126.731C47.9973 134.832 40.0728 151.753 42.9544 163.544C43.945 167.684 46.1963 170.835 49.6182 172.905C53.3103 175.155 57.8129 175.515 61.8652 174.075C60.3343 175.335 58.6234 175.605 56.8223 175.605Z" fill="black"></path><path d="M99.9569 124.391C95.7244 117.91 88.8806 113.23 83.1173 112.87C89.0607 112.69 96.0847 117.55 100.137 123.941C100.047 124.391 99.9569 124.391 99.9569 124.391Z" fill="black"></path><path d="M83.2974 108.009C83.0272 108.009 82.7571 108.009 82.4869 108.009C81.5864 107.919 80.1456 107.739 79.155 107.559C80.2356 107.199 81.5864 107.379 82.577 107.469C83.5675 107.559 84.2879 107.469 84.9183 107.289C85.9089 106.929 86.6293 106.209 87.0795 104.949C87.7999 102.879 87.7099 100.539 87.7099 98.3785C87.7099 96.8484 87.6198 95.6783 87.6198 94.5082L87.5298 92.708C88.0701 92.708 88.1601 94.5082 88.1601 94.5082C88.1601 95.6783 88.2502 96.9384 88.2502 98.1085C88.2502 100.719 88.3403 102.969 87.6198 105.219C87.1696 106.659 86.3591 107.559 85.0984 107.919C84.468 107.919 83.9277 108.009 83.2974 108.009Z" fill="black"></path><path d="M75.553 96.6682C81.4063 92.9779 82.3969 87.2174 82.3969 87.1274C83.0272 87.0374 87.1696 90.0977 87.98 92.3479C86.8094 90.8177 83.9277 88.4775 82.8471 87.6675C82.4869 89.1076 80.866 93.878 75.643 96.5782C75.643 96.5782 75.553 96.6682 75.553 96.6682Z" fill="black"></path><path d="M80.2356 95.4983C80.5058 95.4983 80.5959 95.5883 80.6859 96.3984C80.776 97.2985 80.5058 97.4785 80.3257 97.4785C80.1456 97.4785 79.8754 97.2084 79.9655 96.4884C79.9655 95.8583 79.9655 95.5883 80.2356 95.4983Z" fill="black"></path><path d="M86.8094 95.3181C87.0795 95.3181 87.1696 95.4081 87.2596 96.2182C87.3497 97.1183 87.1696 97.2983 86.8994 97.2983C86.7193 97.2983 86.4492 97.0283 86.4492 96.3982C86.5392 95.6781 86.5392 95.3181 86.8094 95.3181Z" fill="black"></path><path d="M87.7099 93.6081C87.2597 93.248 86.8094 93.068 85.8188 93.248C86.8995 92.3479 87.5298 92.708 87.89 93.068C87.89 93.6081 87.8 93.6081 87.7099 93.6081Z" fill="black"></path><path d="M79.2451 93.788C80.2356 92.2579 81.7665 92.708 81.8566 92.708C81.6765 93.248 80.3257 92.888 79.4252 93.698C79.4252 93.788 79.3351 93.788 79.2451 93.788Z" fill="black"></path><path d="M74.2022 102.249C73.1216 102.159 72.3111 101.799 71.7708 101.169C71.2305 100.539 70.8703 99.6385 70.9604 98.8284C71.0504 97.9284 71.4106 97.1183 72.041 96.5782C72.6713 96.0382 73.5719 95.6782 74.3823 95.7682C75.0127 95.7682 75.643 96.0382 76.1833 96.3982C75.3729 96.4882 74.9226 96.3082 74.3823 96.3082C73.6619 96.3082 72.9415 96.4882 72.4012 96.9383C71.8609 97.3883 71.5007 98.1084 71.5007 98.8284C71.5007 99.5485 71.6808 100.269 72.131 100.809C72.5813 101.349 73.3017 101.709 74.0221 101.709C74.4724 101.709 75.0127 101.619 75.4629 101.439C75.1928 102.159 74.6525 102.249 74.2022 102.249Z" fill="black"></path><path d="M73.4818 100.809C73.3017 100.269 75.0127 99.0086 75.0127 99.0086L73.1216 97.5685C73.4818 97.1184 75.643 98.7386 75.643 98.7386C75.643 99.1886 73.6619 100.719 73.6619 100.719C73.6619 100.809 73.5719 100.809 73.4818 100.809Z" fill="black"></path><path d="M81.7665 119.35C81.5864 119.26 75.1928 114.31 75.1928 114.31C75.553 113.86 81.5864 118.54 81.5864 118.54L82.667 112.6L82.9372 107.829C83.4775 107.829 83.2974 112.69 83.2974 112.69L82.1267 119.17C81.7665 119.35 81.7665 119.35 81.7665 119.35Z" fill="black"></path><path d="M86.179 113.23C87.8 110.079 85.4586 107.559 85.2785 107.469C85.7288 107.109 88.5204 110.079 86.3591 113.14C86.3591 113.23 86.2691 113.23 86.179 113.23Z" fill="black"></path><path d="M73.842 114.4C73.3918 114.4 73.1216 114.4 73.1216 114.31C73.3918 113.77 77.8042 114.4 78.8849 109.629C79.9655 104.769 75.0127 102.069 74.9226 101.979C75.2828 101.529 80.5958 104.409 79.4252 109.719C78.4346 113.95 75.2828 114.4 73.842 114.4Z" fill="black"></path><path d="M50.1585 187.036C49.7083 182.806 49.8884 173.895 49.8884 173.805C50.4287 173.895 50.2486 182.806 50.4287 186.676C50.1585 187.036 50.1585 187.036 50.1585 187.036Z" fill="black"></path><path d="M61.595 154.183C66.0076 144.462 66.6379 129.431 66.6379 129.251C67.1782 129.431 66.6379 144.552 61.8652 154.003C61.8652 154.183 61.7751 154.183 61.595 154.183Z" fill="black"></path><path d="M85.5487 101.259C85.7288 100.449 86.4492 99.6385 86.5392 99.0984C86.3591 98.7384 85.8188 98.9184 85.5487 99.0984C85.1885 99.2785 85.0084 99.3685 84.8283 99.2785C84.5581 98.8284 84.1979 96.1282 84.1078 95.5881C84.8283 96.5782 85.0084 98.1083 85.0984 98.7384C85.7288 98.4684 86.5392 98.1084 86.8994 98.6484C86.9895 98.7384 87.0795 99.0084 87.0795 99.2785C86.9895 99.9985 86.089 100.989 85.6387 101.259C85.6387 101.259 85.6387 101.259 85.5487 101.259Z" fill="black"></path><path d="M83.1173 103.419C82.667 103.419 82.3068 103.329 81.9466 103.059C81.0461 102.429 80.956 101.259 80.956 101.259C81.4964 101.259 81.5864 102.159 82.3068 102.609C82.667 102.879 83.2073 102.879 83.8377 102.789C83.6576 103.329 83.3874 103.419 83.1173 103.419Z" fill="black"></path><path d="M164.163 123.131C163.893 123.131 163.623 123.131 163.263 123.041C164.073 122.681 164.614 122.591 164.974 122.32C165.604 121.87 165.694 120.97 165.694 120.88C166.235 120.97 166.144 122.14 165.244 122.771C164.974 123.041 164.614 123.131 164.163 123.131Z" fill="black"></path><path d="M80.4157 85.2372C80.2356 85.1472 78.2545 84.0671 77.1739 83.7971C78.5247 83.5271 80.5058 84.6072 80.5958 84.6972C80.5958 85.2372 80.5058 85.2372 80.4157 85.2372Z" fill="black"></path><path d="M237.375 113.32C237.105 111.88 236.925 107.559 236.925 107.559C236.925 107.469 238.366 102.969 238.366 102.969C238.456 102.789 238.546 102.519 238.636 102.339C239.086 100.989 239.536 99.4585 238.996 98.2884C238.726 97.6583 238.185 97.2983 237.555 96.8482C236.745 96.3082 235.844 95.8581 234.854 95.4981C234.493 95.3181 234.043 95.2281 233.503 95.1381C232.602 95.0481 231.612 95.4981 231.522 96.4882C231.432 97.0282 231.612 97.6583 232.062 98.1983C232.602 98.9184 233.413 99.5485 233.953 99.9085C235.034 100.629 236.294 101.079 237.555 101.259C236.204 101.709 234.854 101.259 233.683 100.449C233.053 99.9985 232.242 99.3684 231.612 98.6484C231.071 97.9283 230.891 97.2083 230.981 96.4882C231.161 95.1381 232.512 94.508 233.593 94.598C234.133 94.688 234.673 94.7781 235.034 94.9581C236.024 95.3181 236.925 95.7681 237.825 96.3082C238.546 96.7582 239.176 97.2083 239.536 97.9283C240.167 99.2784 239.716 100.989 239.266 102.429C239.176 102.609 239.086 102.879 238.996 103.059L237.555 107.469C237.555 108.009 237.735 111.79 237.735 112.96C237.645 113.23 237.555 113.32 237.375 113.32Z" fill="black"></path><path d="M225.038 113.23C224.768 112.96 224.408 109.359 224.408 109.359C224.408 109.359 223.687 106.479 223.327 102.879C224.318 106.389 224.948 109.269 225.038 109.269L225.398 112.96C225.038 113.23 225.038 113.23 225.038 113.23Z" fill="black"></path><path d="M225.218 103.689C224.588 103.689 223.867 103.419 223.417 102.969C223.237 102.789 223.147 102.609 223.057 102.429C222.877 102.159 222.787 101.799 222.787 101.439C222.517 99.7285 222.246 97.9284 222.607 96.2182C222.697 95.7682 222.967 95.0481 223.507 94.5981C224.138 94.058 225.218 93.878 225.939 94.3281C226.749 94.7781 227.289 95.7682 227.469 96.4882C227.559 96.8483 227.65 97.2083 227.74 97.6583C227.92 98.9184 228.01 99.9985 227.92 101.079C227.74 101.979 227.379 102.699 226.839 103.149C226.389 103.509 225.758 103.689 225.218 103.689ZM223.597 102.249C224.498 103.329 225.758 103.329 226.479 102.699C226.929 102.339 227.199 101.709 227.379 100.989C227.559 99.9985 227.379 99.0085 227.289 98.1984C227.109 97.2983 227.019 96.9383 226.929 96.6683C226.749 96.1282 226.389 95.2281 225.668 94.8681C225.128 94.5981 224.318 94.6881 223.867 95.0481C223.417 95.4082 223.237 95.9482 223.147 96.3982C222.877 97.9284 223.147 99.8185 223.327 101.349C223.417 101.709 223.507 101.979 223.597 102.249Z" fill="black"></path><path d="M236.925 96.3982C236.565 93.6979 236.294 90.9077 235.574 88.2975C235.484 87.8475 235.304 87.3974 234.944 87.0374C234.313 86.4073 233.593 86.7674 233.053 87.2174C231.882 88.2975 232.062 89.8276 232.152 91.3578C232.332 92.7079 232.422 93.788 232.512 94.8681C231.882 93.878 231.792 92.7979 231.612 91.8078C231.432 89.8276 231.252 88.1175 232.602 86.8574C233.323 86.1373 234.493 85.8673 235.304 86.6774C235.664 87.1274 235.934 87.6674 236.024 88.1175C236.835 90.8177 237.015 93.6079 237.105 96.1282C236.925 96.3982 236.925 96.3982 236.925 96.3982Z" fill="black"></path><path d="M230.711 102.969C230.081 102.969 229.451 102.789 228.91 102.429C228.1 101.889 227.83 100.989 227.65 100.359C227.559 99.8185 227.469 99.2784 227.379 98.7384C227.379 98.4684 227.289 98.1083 227.289 97.8383C227.109 96.9382 227.109 95.9482 227.469 95.0481C227.92 93.968 229.361 92.9779 230.711 93.4279C231.702 93.788 232.242 94.418 232.242 95.2281C231.612 94.508 230.891 94.148 230.531 93.968C229.541 93.608 228.37 94.328 228.01 95.2281C227.65 96.0382 227.74 96.9382 227.92 97.6583C228.01 97.9283 228.01 98.2884 228.01 98.5584C228.1 99.0984 228.1 99.6385 228.28 100.089C228.37 100.629 228.64 101.439 229.27 101.799C229.901 102.249 230.891 102.429 231.612 101.979C232.332 101.619 232.692 100.809 232.692 99.6385C233.233 101.439 232.512 102.159 231.882 102.519C231.612 102.879 231.162 102.969 230.711 102.969Z" fill="black"></path><path d="M229.541 107.109C229 104.319 230.351 102.519 230.441 102.429C230.891 102.789 229.631 104.409 229.901 106.749C229.541 107.109 229.541 107.109 229.541 107.109Z" fill="black"></path><path d="M152.727 177.765C152.547 177.315 161.642 168.134 161.642 168.134C162.002 168.134 164.524 170.654 164.524 170.654C164.524 171.015 158.22 177.315 158.22 177.315C157.86 176.955 163.893 170.835 163.893 170.835L161.822 168.764L152.907 177.675C152.907 177.765 152.817 177.765 152.727 177.765Z" fill="black"></path><path d="M164.343 171.194C164.163 170.744 165.154 169.664 165.154 169.664L163.083 167.594L162.092 168.584C161.642 168.224 162.903 166.964 162.903 166.964C163.263 166.964 165.784 169.484 165.784 169.484C165.784 169.844 164.524 171.104 164.524 171.104C164.524 171.104 164.434 171.194 164.343 171.194Z" fill="black"></path><path d="M146.784 186.226C146.513 185.866 148.134 181.455 148.134 181.455C148.675 181.635 147.234 185.416 147.234 185.416L150.656 184.156C150.836 184.696 146.874 186.226 146.874 186.226C146.874 186.226 146.784 186.226 146.784 186.226Z" fill="black"></path><path d="M153.087 182.806C150.836 182.806 149.485 182.266 148.855 181.815C148.224 181.365 147.774 180.825 147.684 180.195C147.324 178.125 150.205 177.405 150.386 177.405C150.566 177.405 158.13 177.585 160.741 176.145C158.4 178.125 151.196 178.035 150.566 177.945C150.295 178.035 148.134 178.665 148.404 180.105C148.494 180.555 148.765 181.005 149.305 181.365C150.205 181.906 152.907 183.076 159.751 181.185C156.959 182.536 154.708 182.806 153.087 182.806Z" fill="black"></path><path d="M156.959 185.866C154.528 185.866 151.556 185.506 149.755 184.066C148.855 183.345 148.314 182.355 148.224 181.185C148.855 182.175 149.305 182.985 150.115 183.616C153.177 186.046 160.471 185.056 160.561 185.056C160.561 185.686 158.94 185.866 156.959 185.866Z" fill="black"></path><path d="M149.845 178.125C149.665 177.585 151.646 174.525 153.267 173.265C154.978 172.004 158.04 171.374 158.13 171.284C158.22 171.824 155.158 172.545 153.627 173.715C152.006 174.885 150.115 177.945 150.115 177.945C150.025 178.125 149.935 178.125 149.845 178.125Z" fill="black"></path><path d="M161.912 188.476C158.4 188.476 154.528 187.756 151.466 185.056C158.58 190.546 170.017 186.676 170.197 186.586C170.287 187.216 166.505 188.476 161.912 188.476Z" fill="black"></path><path d="M251.693 167.504C250.703 167.504 249.802 167.144 249.082 166.334C248.541 165.794 248.361 165.254 248.361 164.714C248.451 163.634 249.712 162.644 251.243 161.564C252.233 160.844 253.224 160.124 254.125 159.134C255.926 157.333 258.717 158.323 261.149 159.224C264.21 160.304 266.101 161.924 266.191 162.014C265.831 162.464 263.94 160.844 260.968 159.764C258.087 158.773 255.926 158.143 254.485 159.584C253.584 160.574 252.414 161.294 251.513 162.014C250.072 163.004 248.902 163.904 248.812 164.804C248.812 165.164 248.992 165.524 249.352 165.974C250.072 166.694 250.883 167.054 251.783 166.964C254.665 166.784 257.727 162.914 257.727 162.914C258.087 163.454 254.935 167.414 251.783 167.504C251.783 167.504 251.693 167.504 251.693 167.504Z" fill="black"></path><path d="M286.453 155.893C285.192 144.822 279.789 127.271 279.789 127.091C280.42 127.091 285.823 144.642 286.723 155.533C286.453 155.893 286.453 155.893 286.453 155.893Z" fill="black"></path><path d="M262.86 160.394C262.86 159.764 274.566 156.703 291.946 155.353C274.746 157.243 263.04 160.304 262.86 160.394C262.86 160.394 262.95 160.394 262.86 160.394Z" fill="black"></path><path d="M271.685 175.065C291.136 174.525 301.311 170.205 303.923 168.855C306.174 167.684 307.795 165.884 308.606 163.274C310.857 156.343 307.705 144.552 299.24 128.171C299.06 127.901 298.88 127.451 298.7 127.091C297.349 124.301 295.008 119.53 290.505 116.29C286.903 113.77 282.851 112.51 277.628 112.51C282.941 111.97 287.173 113.14 290.865 115.84C295.548 119.17 297.889 123.941 299.33 126.821C299.51 127.181 299.69 127.541 299.871 127.901C308.425 144.462 311.577 156.433 309.326 163.454C308.425 166.154 306.805 168.134 304.373 169.305C301.491 170.745 291.226 175.065 271.685 175.065Z" fill="black"></path><path d="M241.247 129.161C246.29 115.48 253.224 113.41 253.494 113.41C256.826 112.33 260.518 112.06 260.518 112.06C260.518 112.6 256.916 112.96 253.674 113.95C253.584 113.95 246.74 116.02 241.517 128.981C241.427 129.071 241.337 129.161 241.247 129.161Z" fill="black"></path><path d="M167.855 114.58C167.585 114.58 167.495 114.67 167.405 115.48C167.315 116.38 167.585 116.56 167.765 116.56C167.946 116.56 168.216 116.29 168.126 115.57C168.126 114.94 168.126 114.58 167.855 114.58Z" fill="black"></path><path d="M174.069 120.88C173.529 120.88 172.988 120.7 172.448 120.43C173.168 120.16 173.619 120.25 174.159 120.25C175.6 120.16 176.771 118.99 176.771 117.46C176.771 116.74 176.41 116.11 175.96 115.57C175.42 115.12 174.789 114.85 174.069 114.85C173.529 114.85 172.988 115.03 172.538 115.39C172.718 114.58 173.349 114.31 173.979 114.31C174.789 114.31 175.69 114.58 176.32 115.21C176.951 115.84 177.311 116.65 177.311 117.46C177.401 119.26 175.96 120.79 174.159 120.79C174.159 120.88 174.159 120.88 174.069 120.88Z" fill="black"></path><path d="M174.699 119.44C174.519 119.35 172.538 117.73 172.538 117.73C172.538 117.28 174.789 115.66 174.789 115.66C175.15 116.11 173.169 117.46 173.169 117.46L174.879 118.81C174.879 119.35 174.789 119.44 174.699 119.44Z" fill="black"></path><path d="M165.334 138.162C165.154 138.162 164.884 138.162 164.704 138.072C163.983 137.892 163.533 137.262 163.533 136.362C163.533 134.922 163.893 133.481 164.343 132.041L164.524 131.501L164.253 126.731C164.794 126.731 165.064 131.501 165.064 131.501C165.064 131.591 164.884 132.221 164.884 132.221C164.524 133.571 164.073 135.012 164.073 136.362C164.073 136.992 164.343 137.352 164.884 137.532C165.244 137.622 165.694 137.622 166.235 137.442C168.306 136.902 170.197 135.462 172.088 132.941C172.898 131.951 173.529 131.141 173.529 130.511V120.61C174.069 120.61 174.069 130.511 174.069 130.511C174.069 131.411 173.349 132.221 172.808 132.941C170.557 136.002 168.576 137.442 166.415 138.072C166.054 138.072 165.694 138.162 165.334 138.162Z" fill="black"></path><path d="M274.116 109.179C273.846 108.909 273.396 100.629 273.396 100.629C273.936 100.629 274.386 108.819 274.386 108.819C274.116 109.179 274.116 109.179 274.116 109.179Z" fill="black"></path><path d="M258.987 91.808C258.717 91.5379 258.717 90.2778 258.717 90.2778C259.257 90.2778 259.257 91.5379 259.257 91.5379C259.257 91.718 259.167 91.808 258.987 91.808Z" fill="black"></path><path d="M263.76 107.649C262.229 107.649 260.608 107.469 259.618 105.939C258.627 104.409 258.627 102.429 258.627 100.629C258.627 100.269 258.627 99.8185 258.627 99.4584C258.627 99.2784 258.627 98.8284 258.627 98.8284H259.167C259.167 98.8284 259.167 99.1884 259.167 99.3684C259.167 99.7285 259.167 100.088 259.167 100.539C259.167 102.339 259.167 104.139 260.068 105.579C261.059 107.109 262.769 107.019 264.48 107.019C264.661 107.019 264.931 107.019 265.111 107.019C266.552 107.019 267.722 106.929 268.713 106.659C269.703 106.479 270.694 106.209 271.234 105.399C271.865 104.499 271.955 103.239 272.045 102.249C272.045 101.619 271.955 96.3082 271.955 96.2182C271.955 96.0381 272.135 95.1381 272.675 94.688C273.486 94.058 274.386 93.788 275.377 93.878C276.367 93.968 277.268 94.418 277.898 95.2281C278.528 96.0381 278.799 96.9382 278.709 97.9283C278.619 98.9184 278.168 99.8185 277.358 100.449C276.007 101.529 274.116 101.619 272.675 100.539C274.206 100.989 275.827 100.989 276.998 99.9985C277.628 99.4584 278.078 98.7384 278.168 97.8383C278.258 97.0282 277.988 96.1281 277.448 95.4981C276.908 94.868 276.187 94.418 275.287 94.328C274.476 94.238 273.576 94.508 272.945 95.0481C272.585 95.3181 272.405 95.9481 272.405 96.2182C272.405 96.3982 272.585 101.619 272.585 102.249C272.495 103.329 272.405 104.679 271.685 105.669C270.964 106.659 269.793 106.929 268.803 107.199C267.722 107.469 266.552 107.559 265.021 107.559C264.841 107.559 264.571 107.559 264.39 107.559C264.21 107.649 264.03 107.649 263.76 107.649Z" fill="black"></path><path d="M262.95 109.179C262.679 108.909 262.679 107.379 262.679 107.379C263.22 107.379 263.22 108.909 263.22 108.909C263.31 108.999 263.13 109.179 262.95 109.179Z" fill="black"></path><path d="M277.538 95.2281C277.448 94.6881 278.258 94.058 278.799 89.4676C279.159 86.5874 277.358 84.9672 276.187 84.6072C273.846 83.8871 270.784 84.2472 270.784 84.2472C268.893 80.9169 266.732 79.6568 265.291 79.2968C263.67 78.8467 261.869 79.0267 260.428 79.9268C258.897 80.8269 257.907 81.997 257.547 83.4371C257.006 85.6873 258.267 87.7575 258.267 87.7575C257.546 88.0275 257.366 88.3875 257.186 88.5675C256.556 89.5576 256.556 91.8078 258.267 93.2479C255.926 91.9878 256.016 89.4676 256.736 88.2075C257.006 87.8475 257.276 87.5775 257.547 87.5775C257.186 86.7674 256.556 85.1472 257.006 83.2571C257.366 81.727 258.447 80.3768 260.158 79.3868C261.779 78.3967 263.67 78.2167 265.471 78.7567C267.002 79.2067 269.253 80.4669 270.964 83.7071C271.685 83.6171 274.296 83.4371 276.367 84.1572C278.078 84.6972 279.699 86.7674 279.429 89.6476C278.889 94.598 277.898 95.2281 277.718 95.3181C277.628 95.2281 277.628 95.2281 277.538 95.2281Z" fill="black"></path><path d="M263.85 100.268C263.67 100.268 261.959 100.268 261.419 99.6384C261.239 99.4584 261.239 99.2784 261.239 99.0984C261.239 98.7383 261.419 98.3783 261.689 97.8383C262.139 96.9382 262.769 95.4981 262.95 93.3379C263.31 95.6781 262.679 97.1182 262.229 98.1083C262.049 98.5583 261.869 98.9184 261.869 99.1884C262.229 99.6384 263.22 99.7284 263.94 99.7284C264.12 100.178 263.94 100.268 263.85 100.268Z" fill="black"></path><path d="M265.831 104.409C265.381 104.409 264.931 104.319 264.48 104.139C263.85 103.869 263.31 103.329 263.22 102.879C263.13 102.429 263.22 102.069 263.49 101.799C263.85 101.439 264.48 101.349 265.021 101.529C265.741 101.709 265.831 101.709 266.011 101.619C266.191 101.529 266.281 101.439 266.462 100.719C266.642 100.178 267.092 99.7284 267.542 99.6384C267.902 99.5484 268.353 99.6384 268.623 99.9985C268.983 100.358 269.073 100.989 268.983 101.709C268.803 102.789 268.172 103.689 267.362 104.139C266.912 104.229 266.372 104.409 265.831 104.409ZM264.57 101.889C264.3 101.889 264.12 101.979 263.94 102.069C263.76 102.249 263.76 102.429 263.76 102.609C263.85 102.879 264.12 103.239 264.661 103.509C265.021 103.689 266.011 104.049 267.092 103.419C267.812 103.059 268.353 102.249 268.443 101.349C268.533 100.719 268.443 100.358 268.263 100.178C268.082 99.9985 267.902 99.9084 267.722 99.9985C267.452 100.088 267.182 100.358 267.002 100.719C266.732 101.619 266.552 101.709 266.281 101.889C265.921 102.069 265.741 102.069 264.841 101.889C264.841 101.979 264.661 101.889 264.57 101.889Z" fill="black"></path><path d="M266.912 104.229C265.831 101.979 267.632 100.719 268.623 100.269C268.713 100.809 266.372 101.799 267.182 103.869C267.002 104.139 267.002 104.229 266.912 104.229Z" fill="black"></path><path d="M276.187 99.6385C276.097 99.6385 273.396 98.2884 273.396 98.2884C273.305 97.8383 275.737 95.3181 275.737 95.3181C276.187 95.6781 273.936 97.9283 273.936 97.9283L276.277 99.0984C276.367 99.5485 276.277 99.6385 276.187 99.6385Z" fill="black"></path><path d="M269.343 85.9575C269.163 85.5074 270.514 83.7073 270.514 83.7073C270.964 84.0673 269.523 85.7774 269.523 85.7774C269.523 85.9575 269.433 85.9575 269.343 85.9575Z" fill="black"></path><path d="M265.201 99.8185C265.291 99.0084 265.561 98.9184 266.011 98.8284C265.831 99.4584 265.651 99.5484 265.471 99.7285C265.291 99.8185 265.201 99.8185 265.201 99.8185Z" fill="black"></path><path d="M269.163 98.8284C269.253 98.1983 270.154 98.1083 270.604 98.0183L270.694 94.148C268.623 91.8978 268.082 89.1975 267.992 88.0274C266.732 88.9275 263.04 91.2677 257.997 90.0976C263.94 90.9077 267.992 87.3074 268.082 87.3074C268.533 87.5774 268.713 91.1777 271.234 93.8779C271.324 94.058 271.144 98.3783 271.144 98.3783C270.964 98.4683 269.433 98.7384 269.163 98.8284C269.253 98.8284 269.253 98.8284 269.163 98.8284Z" fill="black"></path><path d="M270.694 127.361C270.424 127.181 265.381 118.81 265.381 118.81L260.878 125.021C260.338 124.841 260.338 112.33 260.338 112.33C260.428 112.15 262.679 108.729 262.679 108.729C263.22 108.819 265.471 117.64 265.471 117.64L273.936 108.549C274.386 108.549 277.628 112.06 277.628 112.06C277.718 112.33 270.874 127.091 270.874 127.091C270.694 127.361 270.694 127.361 270.694 127.361ZM265.831 118.27L270.694 126.461L277.178 112.42L274.206 109.269L265.831 118.27ZM260.968 112.42V123.941L265.111 118.18L262.859 109.539L260.968 112.42Z" fill="black"></path><path d="M260.788 156.523C260.248 154.453 259.978 136.092 259.978 135.282C260.158 127.991 260.788 124.121 260.878 124.121C261.419 124.301 260.788 128.081 260.608 135.282C260.608 135.462 260.788 149.413 261.059 154.453C262.679 148.783 267.902 130.241 269.884 125.741C268.083 131.231 261.149 155.983 261.149 156.253C261.059 156.523 260.878 156.523 260.788 156.523Z" fill="black"></path><path d="M265.921 127.361L262.679 127.091C262.409 126.821 262.049 122.591 262.049 122.591C262.589 122.501 262.95 126.551 262.95 126.551L265.831 126.821L268.353 123.311C268.803 123.671 266.191 127.271 266.191 127.271C266.101 127.271 266.011 127.361 265.921 127.361Z" fill="black"></path><path d="M260.338 131.681C260.068 131.231 262.409 126.641 262.409 126.641C262.95 126.911 260.608 131.591 260.608 131.591C260.608 131.591 260.518 131.681 260.338 131.681Z" fill="black"></path><path d="M107.161 138.342C104.73 138.252 102.658 137.172 101.037 135.372C100.407 134.652 99.4165 133.571 99.5966 132.311C99.6867 131.681 100.047 131.051 100.587 130.691C101.128 130.241 101.758 130.061 102.388 130.151C101.848 130.601 101.398 130.781 100.947 131.141C100.497 131.501 100.227 131.951 100.227 132.401C100.137 133.301 100.857 134.202 101.578 135.012C103.019 136.722 104.91 137.712 106.891 137.802C108.872 137.892 110.763 137.082 112.294 135.552C115.536 132.491 116.616 129.251 115.536 126.191C114.545 123.581 114.005 123.131 114.005 123.041C114.455 122.681 115.085 123.131 116.076 125.921C116.886 128.171 116.977 131.771 112.654 135.912C111.123 137.532 109.142 138.342 107.161 138.342Z" fill="black"></path><path d="M110.943 131.951C109.142 130.871 106.531 129.161 105.9 128.441C105.27 127.811 104.64 127.091 104.73 126.371C104.82 125.471 105.27 124.661 105.99 124.211C106.621 123.851 107.341 123.761 108.152 123.851C108.872 123.941 109.412 124.391 109.862 124.841C111.754 126.461 112.744 127.091 112.744 127.091C112.384 127.541 111.393 126.911 109.862 125.561C109.052 124.841 108.602 124.481 108.061 124.391C107.341 124.301 106.801 124.391 106.26 124.661C105.72 125.021 105.36 125.651 105.27 126.371C105.18 126.911 105.81 127.451 106.17 127.901C106.891 128.711 109.502 130.421 111.123 131.411C111.123 131.861 111.033 131.951 110.943 131.951Z" fill="black"></path><path d="M108.152 135.552C106.441 134.562 104.369 133.031 102.838 131.591C101.758 130.601 101.218 128.891 102.478 127.541C103.109 126.911 104.099 126.551 105.09 126.641C104.279 127.181 103.379 127.451 102.838 127.901C101.848 128.891 102.298 130.331 103.199 131.141C104.73 132.581 106.801 134.022 108.242 135.012C108.332 135.552 108.242 135.552 108.152 135.552Z" fill="black"></path><path d="M128.233 175.875C134.807 171.645 136.157 165.434 137.598 158.774C138.229 155.893 138.859 152.923 139.94 150.133C144.892 137.712 154.168 131.681 158.85 130.781C160.831 130.421 162.723 130.061 164.614 129.971C162.813 130.601 160.922 130.961 158.94 131.321C154.438 132.221 145.343 138.072 140.48 150.313C139.399 153.013 138.769 155.983 138.139 158.864C136.698 165.614 135.257 171.915 128.323 175.785C128.323 175.875 128.323 175.875 128.233 175.875Z" fill="black"></path><path d="M149.575 178.125C145.793 159.674 150.476 145.813 150.566 145.633C151.016 145.993 146.423 159.674 149.935 177.765C149.575 178.125 149.575 178.125 149.575 178.125Z" fill="black"></path><path d="M196.852 181.185C187.487 173.085 165.694 171.825 165.514 171.825C165.784 171.285 187.757 172.635 197.032 180.735C197.032 181.185 196.942 181.185 196.852 181.185Z" fill="black"></path><path d="M203.516 186.856C209.279 174.885 203.966 155.173 197.843 145.453C196.402 143.112 194.781 140.682 192.98 138.522C188.927 133.752 182.264 131.051 173.889 130.691C182.534 130.421 189.288 133.212 193.43 138.162C195.321 140.412 196.942 142.842 198.383 145.183C204.596 155.083 209.909 175.065 203.876 186.766C203.696 186.766 203.606 186.856 203.516 186.856Z" fill="black"></path><path d="M164.343 127.001C163.713 127.001 163.173 126.911 162.633 126.731C161.462 126.371 160.651 125.471 160.111 124.031C159.391 121.87 159.391 119.53 159.481 117.19C159.481 116.47 159.661 109.989 159.661 109.899C160.201 110.169 160.111 115.3 160.021 116.92C160.021 119.44 159.931 121.69 160.651 123.851C161.102 125.111 161.732 125.921 162.813 126.191C163.443 126.371 164.163 126.461 165.154 126.371C166.054 126.281 167.495 126.101 168.396 125.921C167.495 126.641 166.144 126.821 165.154 126.911C164.884 126.911 164.524 127.001 164.343 127.001Z" fill="black"></path><path d="M161.192 114.31C160.921 114.31 160.831 114.4 160.741 115.21C160.651 116.11 160.921 116.29 161.102 116.29C161.282 116.29 161.552 116.02 161.552 115.39C161.462 114.67 161.462 114.31 161.192 114.31Z" fill="black"></path><path d="M159.931 112.6C160.111 111.789 160.741 111.429 161.912 111.699C160.832 111.97 160.381 112.24 160.111 112.51C160.021 112.6 160.021 112.6 159.931 112.6Z" fill="black"></path><path d="M185.235 175.245C185.956 164.984 181.543 148.513 181.543 148.333C182.174 148.333 186.496 164.984 185.506 174.975C185.506 175.155 185.415 175.245 185.235 175.245Z" fill="black"></path><path d="M304.913 187.036H254.035C254.035 186.496 304.913 186.496 304.913 186.496C305.184 186.946 305.094 187.036 304.913 187.036Z" fill="black"></path><path d="M170.287 187.126C170.287 186.586 230.261 186.406 230.261 186.406C230.261 187.036 170.287 187.126 170.287 187.126Z" fill="black"></path><path d="M154.528 187.036H132.195C132.195 186.496 154.528 186.496 154.528 186.496C154.798 186.946 154.618 187.036 154.528 187.036Z" fill="black"></path><path d="M66.2777 187.036H30.6174C30.6174 186.496 66.2777 186.496 66.2777 186.496C66.5479 186.946 66.4578 187.036 66.2777 187.036Z" fill="black"></path><path d="M170.107 187.216C172.448 185.056 173.799 181.726 173.349 178.485C172.718 174.255 168.306 171.195 163.893 171.915C168.486 170.565 173.168 173.895 173.889 178.395C174.429 181.816 172.988 185.326 170.287 187.126C170.197 187.216 170.107 187.216 170.107 187.216Z" fill="black"></path><path d="M94.1936 186.586C93.6533 186.586 93.0229 186.406 92.3926 186.136C91.312 185.596 90.3214 184.606 89.601 183.346C88.8806 182.086 88.5204 180.735 88.6104 179.475C88.7005 178.215 89.2408 177.225 90.0512 176.685C90.9517 176.145 92.0324 176.235 93.203 176.775C94.2836 177.315 95.2742 178.305 95.9946 179.565C96.715 180.825 97.0752 182.176 96.9852 183.436C96.8951 184.696 96.3548 185.686 95.5444 186.226C95.0941 186.496 94.6438 186.586 94.1936 186.586ZM91.402 176.955C91.0418 176.955 90.6816 177.045 90.3214 177.225C89.601 177.675 89.1507 178.485 89.1507 179.475C89.0607 180.555 89.4209 181.816 90.0512 182.986C90.6816 184.156 91.6722 185.056 92.6627 185.596C93.6533 186.046 94.5538 186.136 95.2742 185.686C95.9946 185.236 96.4449 184.426 96.4449 183.436C96.5349 182.356 96.1747 181.095 95.5444 179.925C94.914 178.755 93.9234 177.855 92.9329 177.405C92.3926 177.135 91.9423 176.955 91.402 176.955Z" fill="black"></path><path d="M126.252 205.758C129.584 205.217 132.375 203.957 133.906 201.797C135.077 200.177 135.437 198.197 134.717 196.217L123.55 162.554C122.65 159.764 119.948 157.783 116.977 157.783H69.9698C69.4295 157.783 68.8892 157.873 68.4389 157.963C68.8892 157.243 69.4295 157.243 69.9698 157.243H117.067C120.308 157.243 123.19 159.314 124.181 162.374L135.347 196.037C136.067 198.197 135.707 200.357 134.447 202.157C132.736 204.407 129.764 205.758 126.252 205.758Z" fill="black"></path><path d="M124.991 205.848H77.8943C74.6525 205.848 71.7708 203.867 70.7803 200.897L59.6139 168.674C58.8935 166.514 59.1637 164.264 60.5144 162.374C61.9552 160.394 64.2065 159.224 66.728 159.224H113.825C117.067 159.224 119.948 161.204 120.939 164.174L132.105 196.397C132.826 198.557 132.555 200.807 131.205 202.697C129.764 204.677 127.513 205.848 124.991 205.848ZM61.8652 173.265L71.3206 200.717C72.2211 203.417 74.9226 205.218 77.8943 205.218H124.991C127.242 205.218 129.404 204.137 130.664 202.337C131.925 200.627 132.195 198.557 131.475 196.577L120.308 164.354C119.408 161.654 116.706 159.854 113.735 159.854H66.728C64.4767 159.854 62.3155 160.934 61.0547 162.734C59.794 164.444 59.5239 166.514 60.2443 168.494L61.8652 173.265Z" fill="black"></path><path d="M64.2065 160.214C64.0264 159.674 68.1688 157.333 68.1688 157.333C68.4389 157.874 64.2966 160.124 64.2966 160.124C64.2966 160.214 64.2966 160.214 64.2065 160.214Z" fill="black"></path><path d="M64.4767 82.8971C64.2065 82.7171 63.6662 81.547 63.0359 79.5668C64.2065 81.367 64.6568 82.4471 64.7468 82.4471C64.5667 82.8971 64.5667 82.8971 64.4767 82.8971ZM62.4956 76.6866C61.9552 75.4265 61.7751 74.2564 61.595 73.1763C62.3154 74.1664 62.4955 75.2465 62.7657 76.3266C62.5856 76.5966 62.5856 76.6866 62.4956 76.6866ZM61.595 70.116C61.2348 68.8559 61.2348 67.7758 61.2348 66.7858C61.7751 67.7758 61.8652 68.8559 61.9552 69.846C61.595 70.116 61.595 70.116 61.595 70.116ZM61.595 63.5455C61.4149 62.1054 61.505 61.0253 61.6851 59.9452C62.0453 61.1153 61.9552 62.1954 61.8652 63.2755C61.8652 63.4555 61.7751 63.5455 61.595 63.5455ZM62.5856 57.0649C62.5856 55.6248 62.8558 54.5447 63.1259 53.5546C63.3961 54.7247 63.0359 55.8048 62.8558 56.8849C62.8558 56.9749 62.7657 57.0649 62.5856 57.0649ZM64.5667 50.7644C64.6568 49.3243 65.107 48.3342 65.6473 47.3441C65.7374 48.6042 65.2871 49.5943 64.8369 50.5844C64.8369 50.6744 64.6568 50.7644 64.5667 50.7644ZM67.3583 44.8239C67.6285 43.4738 68.1688 42.4837 68.7991 41.5836C68.7091 42.8437 68.0787 43.7438 67.6285 44.7339C67.5384 44.7339 67.4484 44.8239 67.3583 44.8239ZM70.9604 39.2434C71.4106 37.8933 72.041 36.9932 72.7614 36.1832C72.4912 37.3533 71.8609 38.2533 71.2305 39.1534C71.1405 39.2434 71.0504 39.2434 70.9604 39.2434ZM75.1027 34.203C75.643 32.9429 76.3634 32.1328 77.1739 31.3228C76.8137 32.4929 76.0032 33.3029 75.2828 34.113C75.2828 34.113 75.1928 34.203 75.1027 34.203Z" fill="black"></path><path d="M208.378 68.5859H169.206C169.206 68.0459 208.108 68.0459 208.108 68.0459V11.3411C208.649 11.3411 208.649 68.3159 208.649 68.3159C208.649 68.4059 208.559 68.5859 208.378 68.5859Z" fill="black"></path><path d="M267.362 99.9985C266.552 99.9985 265.831 99.4584 265.381 98.4684C264.931 97.5683 264.661 96.3982 264.751 95.2281C264.751 93.968 265.111 92.8879 265.561 91.9878C266.101 91.0877 266.822 90.6377 267.542 90.6377C268.353 90.6377 269.073 91.1777 269.523 92.1678C269.974 93.0679 270.244 94.238 270.154 95.4081C270.154 98.0183 268.893 99.9985 267.362 99.9985ZM267.542 91.1777C267.002 91.1777 266.462 91.5378 266.101 92.2578C265.651 93.0679 265.381 94.058 265.291 95.2281C265.291 96.3982 265.471 97.3883 265.831 98.1983C266.191 98.9184 266.732 99.3684 267.272 99.3684C268.443 99.3684 269.433 97.4783 269.523 95.3181C269.523 94.148 269.343 93.1579 268.983 92.3478C268.623 91.6278 268.173 91.1777 267.542 91.1777C267.542 91.1777 267.632 91.1777 267.542 91.1777Z" fill="black"></path><path d="M260.248 99.9985C259.438 99.9985 258.717 99.4584 258.267 98.4684C257.817 97.5683 257.546 96.3982 257.637 95.2281C257.637 93.968 257.997 92.8879 258.447 91.9878C258.987 91.0877 259.708 90.6377 260.428 90.6377C261.959 90.7277 263.22 92.7979 263.13 95.3181C262.589 93.0679 261.689 91.1777 260.428 91.1777C259.888 91.1777 259.348 91.5378 258.897 92.2578C258.447 93.0679 258.177 94.058 258.087 95.2281C258.087 96.3982 258.267 97.3883 258.627 98.1983C258.987 98.9184 259.528 99.3684 260.068 99.3684C260.428 99.3684 260.698 99.2784 261.058 99.0084C261.149 99.8185 260.788 99.9985 260.248 99.9985Z" fill="black"></path><path d="M262.769 95.9482C262.499 95.4982 262.769 95.0481 263.4 94.9581C263.94 94.8681 264.48 94.9581 265.111 95.4082C263.58 95.1381 263.04 95.7682 263.04 95.8582C262.95 95.9482 262.859 95.9482 262.769 95.9482Z" fill="black"></path><path d="M231.882 154.453C229.541 154.453 227.019 153.913 225.038 152.113C221.256 148.603 221.166 142.932 220.986 137.982C220.986 136.812 220.896 135.822 220.896 134.742C220.445 127.991 221.526 111.52 221.526 111.34C222.066 111.52 220.986 127.991 221.526 134.652C221.616 135.642 221.616 136.722 221.616 137.892C221.796 142.752 221.886 148.333 225.488 151.663C228.91 154.813 234.313 153.823 236.475 153.283C240.797 152.113 244.849 149.683 248.361 146.173C245.119 150.223 241.067 152.743 236.565 153.913C235.484 154.093 233.773 154.453 231.882 154.453Z" fill="black"></path><path d="M240.347 146.892C241.878 140.772 240.437 111.429 240.437 111.159C241.067 112.33 242.418 140.862 240.617 146.712C240.527 146.802 240.437 146.892 240.347 146.892Z" fill="black"></path><path d="M267.182 166.424C266.372 162.644 264.931 160.034 263.58 160.214C265.381 159.674 266.912 162.194 267.452 166.154C267.182 166.424 267.182 166.424 267.182 166.424Z" fill="black"></path><path d="M249.442 187.486C249.352 187.486 215.673 180.645 215.673 180.645C215.583 180.195 243.138 161.114 243.138 161.114C243.318 161.114 249.982 162.374 249.982 162.374C249.892 162.914 243.408 161.654 243.408 161.654L216.483 180.285L249.442 186.946L276.367 168.314L257.366 164.444C257.456 163.904 277.088 167.864 277.088 167.864C277.178 168.404 249.622 187.486 249.622 187.486C249.532 187.486 249.532 187.486 249.442 187.486Z" fill="black"></path><path d="M248.631 190.816C248.541 190.816 214.862 183.976 214.862 183.976C214.772 183.436 218.554 180.826 218.554 180.826C218.914 181.276 215.673 183.526 215.673 183.526L248.631 190.186L275.557 171.555L273.215 171.105C273.305 170.565 276.367 171.195 276.367 171.195C276.457 171.735 248.902 190.816 248.902 190.816C248.812 190.726 248.721 190.816 248.631 190.816Z" fill="black"></path><path d="M294.738 186.856C293.657 179.475 294.017 172.455 294.017 172.365C294.558 172.455 294.287 179.475 295.008 186.496C294.828 186.856 294.738 186.856 294.738 186.856Z" fill="black"></path><path d="M248.001 162.284C247.821 143.022 249.622 132.491 251.063 127.001C250.162 132.581 248.451 143.112 248.271 162.014C248.361 162.104 248.181 162.284 248.001 162.284Z" fill="black"></path><path d="M169.837 113.77C168.396 111.609 166.235 112.33 166.144 112.33C165.964 111.789 168.576 110.889 170.107 113.32C169.927 113.77 169.837 113.77 169.837 113.77Z" fill="black"></path><path d="M260.698 159.674C260.428 159.404 260.518 156.253 260.518 156.253C261.058 156.253 260.968 159.404 260.968 159.404C260.968 159.584 260.878 159.674 260.698 159.674Z" fill="black"></path><path d="M267.542 133.481C267.272 133.301 265.651 127.091 265.651 127.091C266.191 126.911 267.812 133.121 267.812 133.121C267.632 133.481 267.632 133.481 267.542 133.481Z" fill="black"></path><path d="M231.251 113.95C226.389 113.95 221.526 113.05 221.526 111.43C221.526 110.799 222.066 109.899 224.588 109.359C223.057 110.259 222.066 110.799 222.066 111.43C222.066 112.24 225.578 113.41 231.251 113.41C236.925 113.41 240.437 112.24 240.437 111.43C240.437 110.98 239.626 110.349 237.285 109.899C239.716 109.809 240.977 110.529 240.977 111.43C240.977 113.05 236.024 113.95 231.251 113.95Z" fill="black"></path><path d="M117.967 157.783C117.697 157.513 117.607 154.723 117.607 151.483C117.607 144.732 115.626 131.231 115.626 131.141C116.256 131.231 118.147 144.732 118.237 151.483C118.237 154.723 118.327 157.513 118.327 157.513C117.967 157.783 117.967 157.783 117.967 157.783Z" fill="black"></path><path d="M250.162 181.275C250.072 181.275 226.659 176.505 226.659 176.505C226.749 175.965 250.252 180.735 250.252 180.735C250.432 181.185 250.252 181.275 250.162 181.275Z" fill="black"></path><path d="M256.826 176.955C256.736 176.955 233.323 172.185 233.323 172.185C233.413 171.645 256.916 176.415 256.916 176.415C257.096 176.865 257.006 176.955 256.826 176.955Z" fill="black"></path><path d="M263.58 172.455C263.49 172.455 240.077 167.684 240.077 167.684C240.167 167.144 263.67 171.915 263.67 171.915C263.85 172.365 263.67 172.455 263.58 172.455Z" fill="black"></path><path d="M141.11 98.1085C136.247 98.1085 131.565 96.6684 127.513 93.8782C122.2 90.1879 118.688 84.7874 117.517 78.4869C116.346 72.1863 117.697 65.7958 121.389 60.5753C128.953 49.6844 143.902 46.9842 154.798 54.4548C165.694 62.0155 168.396 76.9567 160.922 87.8476C157.229 93.1581 151.826 96.6684 145.523 97.8385C143.992 98.0185 142.551 98.1085 141.11 98.1085ZM141.2 50.7645C133.726 50.7645 126.432 54.2748 121.929 60.8454C118.327 65.9758 117.067 72.1863 118.147 78.3968C119.228 84.5174 122.74 89.9178 127.873 93.4281C133.006 97.0284 139.219 98.2885 145.433 97.2084C151.556 96.1284 156.959 92.6181 160.471 87.4876C167.855 76.8667 165.154 62.2855 154.528 54.9049C150.386 52.1146 145.793 50.7645 141.2 50.7645Z" fill="black"></path><path d="M141.11 103.059C135.437 103.059 129.674 101.439 124.721 97.9284C118.417 93.518 114.095 86.9475 112.744 79.3868C111.393 71.8262 113.014 64.0855 117.427 57.785C121.839 51.4844 128.413 47.1641 135.977 45.814C143.542 44.4638 151.286 46.084 157.59 50.4944C170.737 59.5851 173.979 77.5867 164.884 90.6378C159.301 98.6484 150.295 103.059 141.11 103.059ZM125.081 97.3883C137.958 106.299 155.609 103.059 164.524 90.1877C173.439 77.3166 170.197 59.6751 157.319 50.7644C151.106 46.444 143.542 44.8239 136.157 46.174C128.683 47.5241 122.2 51.6645 117.967 57.965C113.645 64.1755 112.024 71.7362 113.374 79.1168C114.635 86.6774 118.778 93.158 125.081 97.3883Z" fill="black"></path><path d="M117.787 117.37C116.616 117.37 114.635 116.29 112.834 115.12C111.573 114.31 110.493 113.32 109.772 112.51C108.962 111.61 108.692 110.889 108.962 110.439C109.502 109.629 111.573 110.529 112.654 111.159C110.403 110.619 109.502 110.619 109.412 110.799C109.322 110.889 109.412 111.249 110.133 112.15C110.853 112.96 111.844 113.86 113.014 114.67C115.806 116.56 117.697 117.1 117.877 116.74C117.967 116.56 117.697 115.75 115.986 114.22C117.337 114.67 118.958 116.2 118.417 117.1C118.327 117.28 118.057 117.37 117.787 117.37Z" fill="black"></path><path d="M115.446 115.3C114.905 115.3 114.005 114.85 113.284 114.31C112.924 114.04 111.213 112.87 111.664 112.15C112.204 112.6 112.654 113.14 113.555 113.86C114.455 114.49 115.176 114.67 115.356 114.76C115.536 115.3 115.536 115.3 115.446 115.3Z" fill="black"></path><path d="M112.024 112.6C111.754 112.15 122.92 96.1282 122.92 96.1282C123.37 96.4882 112.204 112.42 112.204 112.42C112.204 112.6 112.114 112.6 112.024 112.6Z" fill="black"></path><path d="M115.716 115.21C115.446 114.76 126.612 98.7385 126.612 98.7385C127.062 99.0986 115.896 115.12 115.896 115.12C115.896 115.21 115.806 115.21 115.716 115.21Z" fill="black"></path><path d="M90.4114 138.162C90.1413 137.712 109.052 110.53 109.052 110.53C109.502 110.89 90.6816 138.072 90.6816 138.072C90.5915 138.072 90.5015 138.162 90.4114 138.162Z" fill="black"></path><path d="M111.754 126.641C111.483 126.191 118.057 116.74 118.057 116.74C118.507 117.1 112.024 126.461 112.024 126.461C111.934 126.641 111.844 126.641 111.754 126.641Z" fill="black"></path><path d="M98.516 145.812C98.2459 145.362 103.919 137.172 103.919 137.172C104.369 137.532 98.6961 145.722 98.6961 145.722C98.6961 145.812 98.6061 145.812 98.516 145.812Z" fill="black"></path><path d="M181.903 131.681C181.723 131.681 181.543 131.681 181.363 131.681C182.264 131.141 182.984 131.141 183.614 130.871C184.335 130.691 184.965 130.241 185.415 129.791C185.956 129.251 186.316 128.441 186.406 127.361C186.586 126.191 186.496 125.021 186.046 124.031C185.506 122.59 184.245 121.42 182.534 120.79C181.633 120.43 178.842 120.07 178.842 120.07C178.572 119.71 178.842 118 178.932 117.55C179.022 117.01 179.202 116.38 179.292 115.84C179.922 112.96 180.733 109.629 179.292 107.739C178.572 106.749 177.401 106.299 175.69 106.119C175.42 105.939 171.367 101.169 164.343 102.429C161.732 102.969 159.301 104.859 158.4 107.199C157.68 109.269 158.22 111.429 159.931 113.5C157.139 111.069 157.319 108.549 157.86 107.019C158.76 104.499 161.372 102.429 164.163 101.889C171.007 100.629 175.15 104.859 175.78 105.579C177.671 105.759 178.932 106.389 179.742 107.379C181.273 109.449 180.463 112.96 179.832 115.93C179.742 116.56 179.562 117.1 179.472 117.64C179.382 118 179.202 119.08 179.202 119.53C179.922 119.62 181.903 119.98 182.714 120.25C184.605 120.97 185.866 122.23 186.496 123.761C186.946 124.841 187.036 126.191 186.856 127.451C186.676 128.531 186.316 129.431 185.686 130.151C185.145 130.691 184.425 131.141 183.614 131.411C183.164 131.591 182.534 131.681 181.903 131.681Z" fill="black"></path><path d="M158.22 131.591C157.139 131.321 156.329 130.601 155.879 129.611C155.248 128.261 155.338 126.551 155.969 125.201C156.689 123.671 158.4 122.591 160.021 122.681C158.49 123.221 157.049 124.211 156.419 125.471C155.879 126.641 155.789 128.261 156.329 129.431C156.599 130.061 157.139 130.781 158.22 131.051C158.49 131.501 158.31 131.591 158.22 131.591Z" fill="black"></path><path d="M173.078 115.12C172.178 114.94 171.548 114.58 171.187 113.86C170.377 112.6 170.467 110.889 170.557 109.899C169.566 110.529 167.405 111.609 164.163 111.429C161.102 111.249 159.211 109.539 159.121 109.449C159.571 109.089 161.372 110.709 164.163 110.889C168.306 111.069 170.737 109.089 170.737 108.999C171.187 109.269 170.647 111.97 171.638 113.5C171.998 114.04 172.448 114.31 173.169 114.49C173.259 115.03 173.169 115.12 173.078 115.12Z" fill="black"></path><path d="M156.149 46.7141C164.884 25.2022 185.506 11.6111 208.379 11.6111C225.758 11.6111 241.968 19.3517 252.864 32.9429C241.607 19.8918 225.578 12.1511 208.379 12.1511C185.686 12.1511 165.244 25.6523 156.419 46.534C156.329 46.6241 156.239 46.7141 156.149 46.7141Z" fill="black"></path><path d="M208.379 125.651C200.904 125.651 193.61 124.211 186.766 121.42C193.79 123.671 200.994 125.111 208.379 125.111C212.701 125.111 216.933 124.661 221.076 123.671C217.023 125.111 212.701 125.651 208.379 125.651Z" fill="black"></path><path d="M240.977 115.3C247.911 109.9 253.584 103.599 257.727 96.0383C254.035 103.869 248.271 110.26 241.157 115.21C241.067 115.3 240.977 115.3 240.977 115.3Z" fill="black"></path><path d="M264.3 78.7568C264.48 75.6966 264.751 72.8164 264.841 70.0261C265.381 72.9064 265.021 75.6966 264.57 78.4868C264.48 78.6668 264.39 78.7568 264.3 78.7568Z" fill="black"></path><path d="M96.4449 146.262C94.3737 146.262 92.2124 145.002 90.1413 142.572C88.3402 140.412 90.1413 137.802 90.1413 137.802C90.5015 138.252 89.0607 140.412 90.5915 142.212C93.203 145.362 95.8145 146.352 98.3359 145.362C97.8857 146.172 97.1653 146.262 96.4449 146.262Z" fill="black"></path><path d="M79.155 146.532C79.065 145.992 81.4063 144.462 82.9372 141.132C86.089 133.931 91.6721 136.002 91.6721 136.002C91.2219 136.452 86.3591 134.741 83.4775 141.402C81.9466 144.912 79.4252 146.442 79.3351 146.532C79.2451 146.442 79.155 146.532 79.155 146.532Z" fill="black"></path><path d="M95.6344 150.493C93.9234 150.493 92.1224 149.863 90.4114 148.513C93.4732 150.133 96.5349 150.493 98.516 148.963C100.407 147.523 98.9663 144.552 98.9663 144.552C99.5066 144.372 101.128 147.703 98.8762 149.413C97.9757 150.223 96.8951 150.493 95.6344 150.493Z" fill="black"></path><path d="M94.6438 153.193C91.8522 153.193 88.8806 151.213 88.7005 151.123C89.0607 150.673 92.5727 152.923 95.3642 152.563C98.3359 152.113 98.2459 149.773 98.2459 149.683C98.7862 149.683 98.9663 152.653 95.4543 153.103C95.1841 153.193 94.914 153.193 94.6438 153.193Z" fill="black"></path><path d="M92.7528 154.993C91.5821 154.993 90.4114 154.453 89.3308 153.733C87.98 152.833 85.9089 154.003 85.0984 154.633C85.9089 153.373 88.1602 152.203 89.691 153.283C90.6816 154.003 91.7622 154.453 92.6627 154.453C94.8239 154.543 95.8145 152.833 95.8145 152.833C96.1747 153.103 95.1841 154.993 92.7528 154.993Z" fill="black"></path><path d="M98.0658 157.423C97.6155 155.623 97.4354 153.553 97.2553 151.933C97.9757 153.463 98.1558 155.533 98.3359 157.153C98.0658 157.423 98.0658 157.423 98.0658 157.423Z" fill="black"></path><path d="M93.9234 132.581C93.7433 127.001 93.2931 124.751 93.2931 124.661C93.8334 124.661 94.3737 126.911 94.1936 132.311C94.2836 132.491 94.1035 132.581 93.9234 132.581Z" fill="black"></path><path d="M162.452 121.24C162.092 121.06 160.291 120.07 160.561 118.9C160.741 118.36 161.102 118.09 161.462 117.91C161.822 117.73 162.092 117.55 162.362 117.1C162.723 116.2 162.632 114.04 162.542 113.23C163.083 113.32 163.353 116.11 162.813 117.37C162.542 118 162.092 118.27 161.732 118.45C161.372 118.63 161.192 118.81 161.102 119.08C160.922 119.71 162.092 120.52 162.542 120.79C162.632 121.15 162.542 121.24 162.452 121.24Z" fill="black"></path><path d="M173.078 107.109C172.988 106.569 175.33 105.849 175.33 105.849C175.42 106.389 173.078 107.109 173.078 107.109Z" fill="black"></path><path d="M309.596 131.231C309.416 130.691 310.046 130.331 310.947 129.611C310.317 130.781 309.776 131.141 309.776 131.141C309.686 131.231 309.596 131.231 309.596 131.231ZM313.648 128.081C314.279 126.821 315.089 126.101 315.9 125.381C315.54 126.551 314.729 127.361 313.829 128.081C313.739 128.081 313.739 128.081 313.648 128.081ZM318.331 123.491C318.871 122.23 319.592 121.33 320.222 120.52C319.952 121.78 319.232 122.591 318.511 123.401C318.511 123.491 318.421 123.491 318.331 123.491ZM322.474 118.36C322.834 117.01 323.464 116.11 324.004 115.12C323.914 116.38 323.284 117.28 322.654 118.18C322.654 118.27 322.564 118.36 322.474 118.36ZM325.805 112.69C326.076 111.34 326.526 110.349 326.976 109.359C327.066 110.619 326.616 111.61 326.076 112.6C326.076 112.6 325.985 112.69 325.805 112.69ZM328.417 106.659C328.507 105.219 328.867 104.229 329.137 103.149C329.407 104.319 329.047 105.399 328.687 106.479C328.687 106.569 328.597 106.659 328.417 106.659ZM330.218 100.269C330.128 98.8285 330.308 97.7484 330.488 96.6683C330.938 97.8384 330.758 98.9185 330.488 99.9986C330.488 100.179 330.308 100.269 330.218 100.269ZM331.028 93.7881C330.758 92.618 330.848 91.7179 330.848 90.8178V90.2778C331.389 90.2778 331.389 90.8178 331.389 90.8178C331.389 91.7179 331.389 92.618 331.299 93.518C331.299 93.6981 331.208 93.7881 331.028 93.7881ZM330.938 87.2175C330.578 85.8674 330.488 84.7873 330.308 83.7072C331.028 84.6973 331.118 85.8674 331.208 86.9475C330.938 87.2175 330.938 87.2175 330.938 87.2175ZM330.038 80.647C329.588 79.2968 329.317 78.3068 329.047 77.2267C329.858 78.1267 330.128 79.2068 330.308 80.2869C330.128 80.6469 330.038 80.647 330.038 80.647ZM328.417 74.3464C327.787 73.0863 327.426 72.0962 327.066 71.1061C327.967 71.9162 328.417 72.9963 328.687 73.9864C328.507 74.3464 328.417 74.3464 328.417 74.3464ZM325.985 68.2259C325.265 67.0558 324.725 66.1557 324.184 65.1656C325.265 65.7957 325.715 66.7858 326.256 67.7759C326.076 68.2259 325.985 68.2259 325.985 68.2259ZM322.744 62.4654C321.933 61.4753 321.213 60.5753 320.582 59.6752C321.753 60.2152 322.383 61.1153 323.014 62.0154C322.834 62.4654 322.744 62.4654 322.744 62.4654ZM318.601 57.335C317.611 56.4349 316.89 55.6248 316.08 54.9048C317.251 55.2648 318.061 55.9849 318.781 56.7949C318.781 57.335 318.691 57.335 318.601 57.335ZM313.829 52.8346C312.838 52.1145 311.938 51.4845 311.037 50.8544C312.298 51.0344 313.198 51.6645 314.009 52.2945C313.919 52.8346 313.919 52.8346 313.829 52.8346ZM308.335 49.1443C307.255 48.6042 306.264 48.0642 305.274 47.6142C306.534 47.5241 307.525 48.0642 308.426 48.6042C308.516 49.1443 308.426 49.1443 308.335 49.1443ZM302.392 46.354C300.411 45.634 299.15 45.364 299.15 45.364C299.33 44.8239 300.501 45.0939 302.482 45.814C302.572 46.354 302.482 46.354 302.392 46.354Z" fill="black"></path><path d="M83.2974 31.2329C80.6859 31.2329 78.6147 29.1627 78.6147 26.5525C78.6147 23.9422 80.6859 21.8721 83.2974 21.8721C85.9089 21.8721 87.98 23.9422 87.98 26.5525C87.98 29.1627 85.9089 31.2329 83.2974 31.2329ZM83.2974 22.4121C81.0461 22.4121 79.155 24.2123 79.155 26.5525C79.155 28.8027 80.956 30.6928 83.2974 30.6928C85.5487 30.6928 87.4397 28.8927 87.4397 26.5525C87.4397 24.3023 85.5487 22.4121 83.2974 22.4121Z" fill="black"></path><path d="M53.1302 221.149C55.2915 223.309 55.2915 226.819 53.1302 229.069C50.969 231.23 47.457 231.23 45.2057 229.069C43.0445 226.909 43.0445 223.399 45.2057 221.149C47.3669 218.989 50.969 218.989 53.1302 221.149ZM45.656 228.529C47.547 230.419 50.6988 230.419 52.5899 228.529C54.481 226.639 54.481 223.489 52.5899 221.599C50.6988 219.709 47.547 219.709 45.656 221.599C43.7649 223.489 43.7649 226.639 45.656 228.529Z" fill="#1EBCD8"></path><path d="M38.3618 224.119C37.9116 224.209 36.5608 223.759 34.3095 222.769C36.8309 223.129 38.1817 223.579 38.1817 223.579C38.4519 224.029 38.4519 224.119 38.3618 224.119ZM31.2478 220.879C29.7169 220.339 28.5462 219.619 27.4656 218.899C28.9064 219.079 30.0771 219.709 31.1577 220.339C31.2478 220.879 31.2478 220.879 31.2478 220.879ZM24.674 216.558C23.2332 215.838 22.2427 215.028 21.3421 214.218C22.6929 214.488 23.6835 215.298 24.584 216.108C24.674 216.468 24.674 216.468 24.674 216.558ZM18.9108 211.248C17.4699 210.348 16.6595 209.268 15.759 208.278C17.1097 208.818 18.0102 209.808 18.9108 210.798C19.0008 210.888 19.0008 211.068 18.9108 211.248ZM13.9579 205.217C12.6972 204.137 11.9768 202.967 11.2564 201.887C12.5171 202.697 13.2375 203.777 13.9579 204.767C14.048 204.857 14.048 205.037 13.9579 205.217ZM9.90564 198.467C8.73497 197.207 8.19466 196.037 7.65435 194.777C8.82502 195.677 9.36533 196.937 9.90564 198.017C9.99569 198.197 9.99569 198.377 9.90564 198.467ZM6.84389 191.176C5.85333 189.826 5.49313 188.566 5.13292 187.306C6.12348 188.386 6.48369 189.646 6.93395 190.816C6.93395 190.996 6.93395 191.086 6.84389 191.176ZM4.77272 183.616C3.8722 182.175 3.6921 180.915 3.512 179.565C4.41251 180.735 4.59261 182.085 4.86277 183.346C4.86277 183.436 4.86277 183.526 4.77272 183.616ZM3.60205 175.875C2.88164 174.345 2.79159 173.085 2.70154 171.735C3.42195 172.995 3.512 174.345 3.6921 175.605C3.6921 175.695 3.60205 175.785 3.60205 175.875Z" fill="#1EBCD8"></path></svg> 